# xmcd CD database file
#
# Track frame offsets:
#	180
#	22955
#	45876
#	64023
#	87519
#	106292
#	129883
#	148432
#	174681
#	197545
#	225985
#	252184
#	279900
#	305561
#	322276
#
# Disc length: 4591 seconds
#
# Revision: 0
# Processed by: cddbd v1.5.1PL0 Copyright (c) Steve Scherf et al.
# Submitted via: CDex 1.51
#
DISCID=cb11ed0f
DTITLE=Various Artist - Zouk - Maxi Zouk - CD 3
DYEAR=1996
DGENRE=Zouk Love
TTITLE0=ZIN - You Pou Zin
TTITLE1=ZSHEA - Konpa Z
TTITLE2=JEAN-MICHEL CABRIMOL - Neg Cont Neg
TTITLE3=KRISTAL - Ba Yo Dlo
TTITLE4=MALAVOI - Abada
TTITLE5=KASSAV - Bolero
TTITLE6=CELINE FLERIAG - Biguine Lele
TTITLE7=DOMINIQUE BERNIER - Oldies But Goodies
TTITLE8=SAKIYO - Bisou Sucre
TTITLE9=ZSHEA - Kenbe M'Sou Beat-La
TTITLE10=C VAMUR - R THAMAR - Tre D'Union
TTITLE11=KACHIMBO - Kachimbo
TTITLE12=JEAN-MICHEL CABRIMOL - Sans Cesse
TTITLE13=TAMBOU BO KANNAL - Gerye Gerye
TTITLE14=ALAIN MARLIN - Edwa
EXTD=YEAR: 1996
EXTT0=
EXTT1=
EXTT2=
EXTT3=
EXTT4=
EXTT5=
EXTT6=
EXTT7=
EXTT8=
EXTT9=
EXTT10=
EXTT11=
EXTT12=
EXTT13=
EXTT14=
PLAYORDER=
